<?xml version="1.0" encoding="UTF-8" standalone="no" ?>
<!DOCTYPE svg PUBLIC "-//W3C//DTD SVG 1.1//EN" "http://www.w3.org/Graphics/SVG/1.1/DTD/svg11.dtd">
<svg xmlns="http://www.w3.org/2000/svg" xmlns:xlink="http://www.w3.org/1999/xlink" version="1.1" width="64" height="64" viewBox="0 0 640 640" xml:space="preserve">
<desc>Created with Fabric.js 5.3.0</desc>
<defs>
</defs>
<g transform="matrix(1 0 0 1 332.6153846154 320.1923144436)" id="xgb6j4R2xCqu8_vWmkIji"  >
<g style="" vector-effect="non-scaling-stroke"   >
		<g transform="matrix(1 0 0 1 0 0)" id="XNTVmoUoNf2dm3lT8b7iU"  >
<path style="stroke: rgb(243,110,8); stroke-width: 0; stroke-dasharray: none; stroke-linecap: butt; stroke-dashoffset: 0; stroke-linejoin: miter; stroke-miterlimit: 4; fill: rgb(0,0,0); fill-rule: nonzero; opacity: 1;" vector-effect="non-scaling-stroke"  transform=" translate(-124.6153778641, -124.6153778641)" d="M 124.61538 0 C 193.40307 0 249.23076 55.82769 249.23076 124.61538 C 249.23076 193.40307 193.40307 249.23076 124.61538 249.23076 C 55.827690000000004 249.23076 0 193.40307 0 124.61538 C 0 55.827690000000004 55.82769 0 124.61538 0 z" stroke-linecap="round" />
</g>
		<g transform="matrix(3.3009707546 0 0 3.3009707546 0 0)" id="-CDXqZaaWeVZqZHJg4NXo"  >
<path style="stroke: rgb(156,1,26); stroke-width: 0; stroke-dasharray: none; stroke-linecap: butt; stroke-dashoffset: 0; stroke-linejoin: miter; stroke-miterlimit: 4; fill: rgb(255,255,255); fill-rule: nonzero; opacity: 1;" vector-effect="non-scaling-stroke"  transform=" translate(0, 0)" d="M 0 -31.69231 C 17.49416 -31.69231 31.69231 -17.494149999999998 31.69231 0 C 31.69231 17.49416 17.494149999999998 31.69231 0 31.69231 C -17.49416 31.69231 -31.69231 17.494149999999998 -31.69231 0 C -31.69231 -17.49416 -17.494149999999998 -31.69231 0 -31.69231 z" stroke-linecap="round" />
</g>
		<g transform="matrix(0.5294116502 0 0 10.882348182 0 -3.2692399182)" id="pbxFEOsFbFSKF1XOiUAk4"  >
<path style="stroke: rgb(130,227,210); stroke-width: 0; stroke-dasharray: none; stroke-linecap: butt; stroke-dashoffset: 0; stroke-linejoin: miter; stroke-miterlimit: 4; fill: rgb(0,0,0); fill-rule: nonzero; opacity: 1;" vector-effect="non-scaling-stroke"  transform=" translate(0, 0)" d="M -10.46154 -10.46154 L 10.46154 -10.46154 L 10.46154 10.46154 L -10.46154 10.46154 z" stroke-linecap="round" />
</g>
		<g transform="matrix(0 0.5294116502 -10.882348182 0 0 -0.1923144436)" id="F71F09H7-Gd4VEMnhX-Qr"  >
<path style="stroke: rgb(130,227,210); stroke-width: 0; stroke-dasharray: none; stroke-linecap: butt; stroke-dashoffset: 0; stroke-linejoin: miter; stroke-miterlimit: 4; fill: rgb(0,0,0); fill-rule: nonzero; opacity: 1;" vector-effect="non-scaling-stroke"  transform=" translate(0, 0)" d="M -10.46154 -10.46154 L 10.46154 -10.46154 L 10.46154 10.46154 L -10.46154 10.46154 z" stroke-linecap="round" />
</g>
		<g transform="matrix(0.3743505679 0.3743505679 -7.6949821947 7.6949821947 0 0)" id="XkNtL-mLXTiRpK-PMiaYU"  >
<path style="stroke: rgb(130,227,210); stroke-width: 0; stroke-dasharray: none; stroke-linecap: butt; stroke-dashoffset: 0; stroke-linejoin: miter; stroke-miterlimit: 4; fill: rgb(0,0,0); fill-rule: nonzero; opacity: 1;" vector-effect="non-scaling-stroke"  transform=" translate(0, 0)" d="M -10.46154 -10.46154 L 10.46154 -10.46154 L 10.46154 10.46154 L -10.46154 10.46154 z" stroke-linecap="round" />
</g>
		<g transform="matrix(-0.3610578772 0.3871871701 -7.9588456252 -7.4217436138 0 0)" id="p54Wj51SInou5D_Hz4jLr"  >
<path style="stroke: rgb(130,227,210); stroke-width: 0; stroke-dasharray: none; stroke-linecap: butt; stroke-dashoffset: 0; stroke-linejoin: miter; stroke-miterlimit: 4; fill: rgb(0,0,0); fill-rule: nonzero; opacity: 1;" vector-effect="non-scaling-stroke"  transform=" translate(0, 0)" d="M -10.46154 -10.46154 L 10.46154 -10.46154 L 10.46154 10.46154 L -10.46154 10.46154 z" stroke-linecap="round" />
</g>
</g>
</g>
<g transform="matrix(1 0 0 1 332.6153846154 320)" id="HA6Zo9ujIt6fSkXAtEL6S"  >
<g style="" vector-effect="non-scaling-stroke"   >
		<g transform="matrix(1 0 0 1 -55.3846195486 -73.2307699952)" id="sEdZAYvrQnfehbMoGfClw"  >
<path style="stroke: rgb(74,147,36); stroke-width: 0; stroke-dasharray: none; stroke-linecap: butt; stroke-dashoffset: 0; stroke-linejoin: miter; stroke-miterlimit: 4; fill: rgb(0,0,0); fill-rule: nonzero; opacity: 1;" vector-effect="non-scaling-stroke"  transform=" translate(-4.9230783025, -4.9230783025)" d="M 4.92308 0 C 7.64062 0 9.84616 2.20554 9.84616 4.92308 C 9.84616 7.64062 7.640619999999999 9.84616 4.92308 9.84616 C 2.2055399999999996 9.84616 0 7.640619999999999 0 4.92308 C 0 2.2055399999999996 2.20554 0 4.92308 0 z" stroke-linecap="round" />
</g>
		<g transform="matrix(1 0 0 1 -28.6153887794 -90.7692315336)" id="NWDO1Rn9BKky1-vtCxT3J"  >
<path style="stroke: rgb(195,90,35); stroke-width: 0; stroke-dasharray: none; stroke-linecap: butt; stroke-dashoffset: 0; stroke-linejoin: miter; stroke-miterlimit: 4; fill: rgb(0,0,0); fill-rule: nonzero; opacity: 1;" vector-effect="non-scaling-stroke"  transform=" translate(-6.4615412529, -6.4615412529)" d="M 6.46154 0 C 10.028310000000001 0 12.92308 2.89477 12.92308 6.46154 C 12.92308 10.028310000000001 10.028310000000001 12.92308 6.46154 12.92308 C 2.8947700000000003 12.92308 0 10.028310000000001 0 6.46154 C 0 2.8947700000000003 2.89477 0 6.46154 0 z" stroke-linecap="round" />
</g>
		<g transform="matrix(1 0 0 1 -28.9230810871 -65.8461546106)" id="vaVPIrD--toHJHu4GEm6l"  >
<path style="stroke: rgb(119,39,69); stroke-width: 0; stroke-dasharray: none; stroke-linecap: butt; stroke-dashoffset: 0; stroke-linejoin: miter; stroke-miterlimit: 4; fill: rgb(0,0,0); fill-rule: nonzero; opacity: 1;" vector-effect="non-scaling-stroke"  transform=" translate(-7.3846094383, -7.3846094383)" d="M 7.38461 0 C 11.460920000000002 0 14.76922 3.30831 14.76922 7.38461 C 14.76922 11.460920000000002 11.46091 14.76922 7.38461 14.76922 C 3.3083 14.76922 0 11.46091 0 7.38461 C 0 3.3083 3.30831 0 7.38461 0 z" stroke-linecap="round" />
</g>
		<g transform="matrix(1 0 0 1 -21.5384716487 -43.0769238413)" id="nHgd2Gx5Ayeqxv_Z2Ah_l"  >
<path style="stroke: rgb(28,109,176); stroke-width: 0; stroke-dasharray: none; stroke-linecap: butt; stroke-dashoffset: 0; stroke-linejoin: miter; stroke-miterlimit: 4; fill: rgb(0,0,0); fill-rule: nonzero; opacity: 1;" vector-effect="non-scaling-stroke"  transform=" translate(0, 0)" d="M 0 -6.76923 C 3.73661 -6.76923 6.76923 -3.7366200000000003 6.76923 0 C 6.76923 3.73661 3.7366200000000003 6.76923 0 6.76923 C -3.73661 6.76923 -6.76923 3.7366200000000003 -6.76923 0 C -6.76923 -3.73661 -3.7366200000000003 -6.76923 0 -6.76923 z" stroke-linecap="round" />
</g>
		<g transform="matrix(0.9986295348 -0.0523359562 0.0523359562 0.9986295348 -80.3076964717 -44.3920502903)" id="xGHv-AHJKBauMm_zi2UkR"  >
<path style="stroke: rgb(171,247,211); stroke-width: 0; stroke-dasharray: none; stroke-linecap: butt; stroke-dashoffset: 0; stroke-linejoin: miter; stroke-miterlimit: 4; fill: rgb(0,0,0); fill-rule: nonzero; opacity: 1;" vector-effect="non-scaling-stroke"  transform=" translate(-7.6923123757, -7.6923123757)" d="M 7.69231 0 C 11.938469999999999 0 15.38462 3.44616 15.38462 7.69231 C 15.38462 11.938469999999999 11.93846 15.38462 7.69231 15.38462 C 3.4461500000000003 15.38462 0 11.93846 0 7.69231 C 0 3.4461500000000003 3.44616 0 7.69231 0 z" stroke-linecap="round" />
</g>
		<g transform="matrix(1 0 0 1 -56.6153887794 -27.0769238413)" id="q6RjPYIdxOfeoITPcJHNp"  >
<path style="stroke: rgb(110,84,182); stroke-width: 0; stroke-dasharray: none; stroke-linecap: butt; stroke-dashoffset: 0; stroke-linejoin: miter; stroke-miterlimit: 4; fill: rgb(0,0,0); fill-rule: nonzero; opacity: 1;" vector-effect="non-scaling-stroke"  transform=" translate(-5.5384598415, -5.5384598415)" d="M 5.53846 0 C 8.59569 0 11.07692 2.48123 11.07692 5.53846 C 11.07692 8.59569 8.59569 11.07692 5.53846 11.07692 C 2.4812299999999996 11.07692 0 8.59569 0 5.53846 C 0 2.4812299999999996 2.48123 0 5.53846 0 z" stroke-linecap="round" />
</g>
		<g transform="matrix(1 0 0 1 -83.0769272409 -22.1538469183)" id="foi0xD6qshofiTog8RpD5"  >
<path style="stroke: rgb(240,172,202); stroke-width: 0; stroke-dasharray: none; stroke-linecap: butt; stroke-dashoffset: 0; stroke-linejoin: miter; stroke-miterlimit: 4; fill: rgb(0,0,0); fill-rule: nonzero; opacity: 1;" vector-effect="non-scaling-stroke"  transform=" translate(-5.5384581032, -5.5384581032)" d="M 5.53846 0 C 8.59569 0 11.07692 2.48123 11.07692 5.53846 C 11.07692 8.59569 8.59569 11.07692 5.53846 11.07692 C 2.4812299999999996 11.07692 0 8.59569 0 5.53846 C 0 2.4812299999999996 2.48123 0 5.53846 0 z" stroke-linecap="round" />
</g>
		<g transform="matrix(1 0 0 1 -93.2307733948 19.3846146202)" id="RP8XYJy3azJJzIuKwdxfA"  >
<path style="stroke: rgb(63,128,164); stroke-width: 0; stroke-dasharray: none; stroke-linecap: butt; stroke-dashoffset: 0; stroke-linejoin: miter; stroke-miterlimit: 4; fill: rgb(0,0,0); fill-rule: nonzero; opacity: 1;" vector-effect="non-scaling-stroke"  transform=" translate(-4.6153781708, -4.6153781708)" d="M 4.61538 0 C 7.163069999999999 0 9.23076 2.06769 9.23076 4.61538 C 9.23076 7.163069999999999 7.16307 9.23076 4.61538 9.23076 C 2.0676900000000002 9.23076 0 7.16307 0 4.61538 C 0 2.0676900000000002 2.06769 0 4.61538 0 z" stroke-linecap="round" />
</g>
		<g transform="matrix(1 0 0 1 -64.6153887794 23.9999992356)" id="JDw48xCwAwNY3PNusPPQ-"  >
<path style="stroke: rgb(61,45,12); stroke-width: 0; stroke-dasharray: none; stroke-linecap: butt; stroke-dashoffset: 0; stroke-linejoin: miter; stroke-miterlimit: 4; fill: rgb(0,0,0); fill-rule: nonzero; opacity: 1;" vector-effect="non-scaling-stroke"  transform=" translate(-6.1538434222, -6.1538434222)" d="M 6.15385 0 C 9.55077 0 12.3077 2.75692 12.3077 6.15385 C 12.3077 9.55077 9.55078 12.3077 6.15385 12.3077 C 2.75693 12.3077 0 9.55078 0 6.15385 C 0 2.75693 2.75692 0 6.15385 0 z" stroke-linecap="round" />
</g>
		<g transform="matrix(1 0 0 1 -78.4615426255 45.8461530817)" id="e73ag1x6JQHWdYobGKlEN"  >
<path style="stroke: rgb(222,97,59); stroke-width: 0; stroke-dasharray: none; stroke-linecap: butt; stroke-dashoffset: 0; stroke-linejoin: miter; stroke-miterlimit: 4; fill: rgb(0,0,0); fill-rule: nonzero; opacity: 1;" vector-effect="non-scaling-stroke"  transform=" translate(-4.6153806435, -4.6153806435)" d="M 4.61538 0 C 7.163069999999999 0 9.23076 2.06769 9.23076 4.61538 C 9.23076 7.163069999999999 7.16307 9.23076 4.61538 9.23076 C 2.0676900000000002 9.23076 0 7.16307 0 4.61538 C 0 2.0676900000000002 2.06769 0 4.61538 0 z" stroke-linecap="round" />
</g>
		<g transform="matrix(1 0 0 1 -36.3076964717 17.8461530817)" id="Kpl44HuZ1vvyEw_R-k7lJ"  >
<path style="stroke: rgb(98,1,240); stroke-width: 0; stroke-dasharray: none; stroke-linecap: butt; stroke-dashoffset: 0; stroke-linejoin: miter; stroke-miterlimit: 4; fill: rgb(0,0,0); fill-rule: nonzero; opacity: 1;" vector-effect="non-scaling-stroke"  transform=" translate(-3.6923105582, -3.6923105582)" d="M 3.69231 0 C 5.73047 0 7.38462 1.65416 7.38462 3.69231 C 7.38462 5.73047 5.73046 7.38462 3.69231 7.38462 C 1.65415 7.38462 0 5.73046 0 3.69231 C 0 1.65415 1.65416 0 3.69231 0 z" stroke-linecap="round" />
</g>
		<g transform="matrix(1 0 0 1 -46.4615426255 79.6923069279)" id="5vq68L2H61VWeUELEfSu6"  >
<path style="stroke: rgb(11,26,51); stroke-width: 0; stroke-dasharray: none; stroke-linecap: butt; stroke-dashoffset: 0; stroke-linejoin: miter; stroke-miterlimit: 4; fill: rgb(0,0,0); fill-rule: nonzero; opacity: 1;" vector-effect="non-scaling-stroke"  transform=" translate(-5.8461485967, -5.8461485967)" d="M 5.84615 0 C 9.073229999999999 0 11.6923 2.61908 11.6923 5.84615 C 11.6923 9.073229999999999 9.07322 11.6923 5.84615 11.6923 C 2.61907 11.6923 0 9.07322 0 5.84615 C 0 2.61907 2.61908 0 5.84615 0 z" stroke-linecap="round" />
</g>
		<g transform="matrix(1 0 0 1 -18.4615426255 46.7692300048)" id="2_couki6zdYE2tdqMPbKm"  >
<path style="stroke: rgb(155,136,30); stroke-width: 0; stroke-dasharray: none; stroke-linecap: butt; stroke-dashoffset: 0; stroke-linejoin: miter; stroke-miterlimit: 4; fill: rgb(0,0,0); fill-rule: nonzero; opacity: 1;" vector-effect="non-scaling-stroke"  transform=" translate(-6.7692311998, -6.7692311998)" d="M 6.76923 0 C 10.50585 0 13.53846 3.03262 13.53846 6.76923 C 13.53846 10.50585 10.505840000000001 13.53846 6.76923 13.53846 C 3.0326100000000005 13.53846 0 10.505840000000001 0 6.76923 C 0 3.0326100000000005 3.03262 0 6.76923 0 z" stroke-linecap="round" />
</g>
		<g transform="matrix(1 0 0 1.0769242697 -35.0769300323 57.8461528476)" id="6nSXsRRiQasXCNhsYTRa4"  >
<path style="stroke: rgb(12,175,183); stroke-width: 0; stroke-dasharray: none; stroke-linecap: butt; stroke-dashoffset: 0; stroke-linejoin: miter; stroke-miterlimit: 4; fill: rgb(0,0,0); fill-rule: nonzero; opacity: 1;" vector-effect="non-scaling-stroke"  transform=" translate(0, 0)" d="M 0 -3.99999 C 2.208 -3.99999 3.99999 -2.2079899999999997 3.99999 0 C 3.99999 2.208 2.2079899999999997 3.99999 0 3.99999 C -2.208 3.99999 -3.99999 2.2079899999999997 -3.99999 0 C -3.99999 -2.208 -2.2079899999999997 -3.99999 0 -3.99999 z" stroke-linecap="round" />
</g>
		<g transform="matrix(1 0 0 1 13.2307650668 32.3076915433)" id="Czt087ZBdTyYcudWcMAEo"  >
<path style="stroke: rgb(127,34,143); stroke-width: 0; stroke-dasharray: none; stroke-linecap: butt; stroke-dashoffset: 0; stroke-linejoin: miter; stroke-miterlimit: 4; fill: rgb(0,0,0); fill-rule: nonzero; opacity: 1;" vector-effect="non-scaling-stroke"  transform=" translate(-3.9999956761, -3.9999956761)" d="M 4 0 C 6.208 0 8 1.792 8 4 C 8 6.208 6.208 8 4 8 C 1.7919999999999998 8 0 6.208 0 4 C 0 1.7919999999999998 1.792 0 4 0 z" stroke-linecap="round" />
</g>
		<g transform="matrix(1 0 0 1 12.6153804514 52.615383851)" id="EYHKTCJtt1B5PLiGc8tby"  >
<path style="stroke: rgb(24,209,99); stroke-width: 0; stroke-dasharray: none; stroke-linecap: butt; stroke-dashoffset: 0; stroke-linejoin: miter; stroke-miterlimit: 4; fill: rgb(0,0,0); fill-rule: nonzero; opacity: 1;" vector-effect="non-scaling-stroke"  transform=" translate(-5.230765334, -5.230765334)" d="M 5.23077 0 C 8.11815 0 10.46154 2.34338 10.46154 5.23077 C 10.46154 8.11815 8.11816 10.46154 5.23077 10.46154 C 2.34339 10.46154 0 8.11816 0 5.23077 C 0 2.34339 2.34338 0 5.23077 0 z" stroke-linecap="round" />
</g>
		<g transform="matrix(1 0 0 1 41.8461496822 64.615383851)" id="-ZDnKIyze6BOL3O-ZCBPI"  >
<path style="stroke: rgb(6,157,52); stroke-width: 0; stroke-dasharray: none; stroke-linecap: butt; stroke-dashoffset: 0; stroke-linejoin: miter; stroke-miterlimit: 4; fill: rgb(0,0,0); fill-rule: nonzero; opacity: 1;" vector-effect="non-scaling-stroke"  transform=" translate(-7.3846156408, -7.3846156408)" d="M 7.38462 0 C 11.460930000000001 0 14.76924 3.30831 14.76924 7.38462 C 14.76924 11.460930000000001 11.46093 14.76924 7.38462 14.76924 C 3.3083099999999996 14.76924 0 11.46093 0 7.38462 C 0 3.3083099999999996 3.30831 0 7.38462 0 z" stroke-linecap="round" />
</g>
		<g transform="matrix(1 0 0 1 23.0769189129 87.6923069279)" id="xAy2aH26ZPFymJzyZ1NhI"  >
<path style="stroke: rgb(222,181,163); stroke-width: 0; stroke-dasharray: none; stroke-linecap: butt; stroke-dashoffset: 0; stroke-linejoin: miter; stroke-miterlimit: 4; fill: rgb(0,0,0); fill-rule: nonzero; opacity: 1;" vector-effect="non-scaling-stroke"  transform=" translate(-9.5384658587, -9.5384658587)" d="M 9.53847 0 C 14.8037 0 19.07694 4.27323 19.07694 9.53847 C 19.07694 14.8037 14.80371 19.07694 9.53847 19.07694 C 4.27324 19.07694 0 14.80371 0 9.53847 C 0 4.27324 4.27323 0 9.53847 0 z" stroke-linecap="round" />
</g>
		<g transform="matrix(1 0 0 1 91.3846112206 23.0769223125)" id="vdHzCMc74db1-TfyBgh3F"  >
<path style="stroke: rgb(181,15,6); stroke-width: 0; stroke-dasharray: none; stroke-linecap: butt; stroke-dashoffset: 0; stroke-linejoin: miter; stroke-miterlimit: 4; fill: rgb(0,0,0); fill-rule: nonzero; opacity: 1;" vector-effect="non-scaling-stroke"  transform=" translate(-6.4615403449, -6.4615403449)" d="M 6.46154 0 C 10.028310000000001 0 12.92308 2.89477 12.92308 6.46154 C 12.92308 10.028310000000001 10.028310000000001 12.92308 6.46154 12.92308 C 2.8947700000000003 12.92308 0 10.028310000000001 0 6.46154 C 0 2.8947700000000003 2.89477 0 6.46154 0 z" stroke-linecap="round" />
</g>
		<g transform="matrix(1 0 0 1 39.6923035283 18.7692300048)" id="F-gZtszjJxj4IH88zlUvS"  >
<path style="stroke: rgb(157,30,121); stroke-width: 0; stroke-dasharray: none; stroke-linecap: butt; stroke-dashoffset: 0; stroke-linejoin: miter; stroke-miterlimit: 4; fill: rgb(0,0,0); fill-rule: nonzero; opacity: 1;" vector-effect="non-scaling-stroke"  transform=" translate(-6.4615372294, -6.4615372294)" d="M 6.46154 0 C 10.028310000000001 0 12.92308 2.89477 12.92308 6.46154 C 12.92308 10.028310000000001 10.028310000000001 12.92308 6.46154 12.92308 C 2.8947700000000003 12.92308 0 10.028310000000001 0 6.46154 C 0 2.8947700000000003 2.89477 0 6.46154 0 z" stroke-linecap="round" />
</g>
		<g transform="matrix(1 0 0 1 67.999995836 20.615383851)" id="7tBuwmgqp83FvZ_uNl6Xq"  >
<path style="stroke: rgb(247,207,106); stroke-width: 0; stroke-dasharray: none; stroke-linecap: butt; stroke-dashoffset: 0; stroke-linejoin: miter; stroke-miterlimit: 4; fill: rgb(0,0,0); fill-rule: nonzero; opacity: 1;" vector-effect="non-scaling-stroke"  transform=" translate(-3.3846174998, -3.3846174998)" d="M 3.38462 0 C 5.25293 0 6.76924 1.51631 6.76924 3.38462 C 6.76924 5.25293 5.25293 6.76924 3.38462 6.76924 C 1.51631 6.76924 0 5.25293 0 3.38462 C 0 1.51631 1.51631 0 3.38462 0 z" stroke-linecap="round" />
</g>
		<g transform="matrix(1 0 0 1 72.6153804514 44.3076915433)" id="guXvMYFcFdiVtVb5F4Ihn"  >
<path style="stroke: rgb(67,192,157); stroke-width: 0; stroke-dasharray: none; stroke-linecap: butt; stroke-dashoffset: 0; stroke-linejoin: miter; stroke-miterlimit: 4; fill: rgb(0,0,0); fill-rule: nonzero; opacity: 1;" vector-effect="non-scaling-stroke"  transform=" translate(-6.7692288961, -6.7692288961)" d="M 6.76923 0 C 10.50585 0 13.53846 3.03262 13.53846 6.76923 C 13.53846 10.50585 10.505840000000001 13.53846 6.76923 13.53846 C 3.0326100000000005 13.53846 0 10.505840000000001 0 6.76923 C 0 3.0326100000000005 3.03262 0 6.76923 0 z" stroke-linecap="round" />
</g>
		<g transform="matrix(1 0 0 1 38.7692266052 -13.5384623029)" id="Nh4ijVDzjp4yH6SDBMIMC"  >
<path style="stroke: rgb(108,1,54); stroke-width: 0; stroke-dasharray: none; stroke-linecap: butt; stroke-dashoffset: 0; stroke-linejoin: miter; stroke-miterlimit: 4; fill: rgb(0,0,0); fill-rule: nonzero; opacity: 1;" vector-effect="non-scaling-stroke"  transform=" translate(-3.6923055107, -3.6923055107)" d="M 3.69231 0 C 5.73046 0 7.38462 1.65415 7.38462 3.69231 C 7.38462 5.73046 5.73047 7.38462 3.69231 7.38462 C 1.65416 7.38462 0 5.73047 0 3.69231 C 0 1.65416 1.65415 0 3.69231 0 z" stroke-linecap="round" />
</g>
		<g transform="matrix(1 0 0 1 76.3076881437 -54.7692315336)" id="6NS19XcW0LUPkcnSiXCzP"  >
<path style="stroke: rgb(137,97,233); stroke-width: 0; stroke-dasharray: none; stroke-linecap: butt; stroke-dashoffset: 0; stroke-linejoin: miter; stroke-miterlimit: 4; fill: rgb(0,0,0); fill-rule: nonzero; opacity: 1;" vector-effect="non-scaling-stroke"  transform=" translate(-6.1538485295, -6.1538485295)" d="M 6.15385 0 C 9.55077 0 12.3077 2.75692 12.3077 6.15385 C 12.3077 9.55077 9.55078 12.3077 6.15385 12.3077 C 2.75693 12.3077 0 9.55078 0 6.15385 C 0 2.75693 2.75692 0 6.15385 0 z" stroke-linecap="round" />
</g>
		<g transform="matrix(1 0 0 1 57.8461496822 -33.2307699952)" id="tuOmiAnQSFpClORHkgPEd"  >
<path style="stroke: rgb(52,106,10); stroke-width: 0; stroke-dasharray: none; stroke-linecap: butt; stroke-dashoffset: 0; stroke-linejoin: miter; stroke-miterlimit: 4; fill: rgb(0,0,0); fill-rule: nonzero; opacity: 1;" vector-effect="non-scaling-stroke"  transform=" translate(-4.3076833634, -4.3076833634)" d="M 4.30769 0 C 6.68553 0 8.61538 1.92984 8.61538 4.30769 C 8.61538 6.68553 6.68554 8.61538 4.30769 8.61538 C 1.92985 8.61538 0 6.68554 0 4.30769 C 0 1.92985 1.92984 0 4.30769 0 z" stroke-linecap="round" />
</g>
		<g transform="matrix(1 0 0 1 78.7692266052 -20.3076930721)" id="xRZxVHdvYL6XAix_HbVCP"  >
<path style="stroke: rgb(115,248,17); stroke-width: 0; stroke-dasharray: none; stroke-linecap: butt; stroke-dashoffset: 0; stroke-linejoin: miter; stroke-miterlimit: 4; fill: rgb(0,0,0); fill-rule: nonzero; opacity: 1;" vector-effect="non-scaling-stroke"  transform=" translate(-7.9999990185, -7.9999990185)" d="M 8 0 C 12.416 0 16 3.584 16 8 C 16 12.416 12.416 16 8 16 C 3.5839999999999996 16 0 12.416 0 8 C 0 3.5839999999999996 3.584 0 8 0 z" stroke-linecap="round" />
</g>
		<g transform="matrix(1 0 0 1 13.8461496822 -87.0769238413)" id="0X2nZGooMbqSyUOce3H58"  >
<path style="stroke: rgb(98,176,61); stroke-width: 0; stroke-dasharray: none; stroke-linecap: butt; stroke-dashoffset: 0; stroke-linejoin: miter; stroke-miterlimit: 4; fill: rgb(0,0,0); fill-rule: nonzero; opacity: 1;" vector-effect="non-scaling-stroke"  transform=" translate(-5.2307689371, -5.2307689371)" d="M 5.23077 0 C 8.11815 0 10.46154 2.34338 10.46154 5.23077 C 10.46154 8.11815 8.11816 10.46154 5.23077 10.46154 C 2.34339 10.46154 0 8.11816 0 5.23077 C 0 2.34339 2.34338 0 5.23077 0 z" stroke-linecap="round" />
</g>
		<g transform="matrix(1 0 0 1 22.4615342975 -60.6153853798)" id="_jcEa-YhV5k93nD0dyL7B"  >
<path style="stroke: rgb(211,18,5); stroke-width: 0; stroke-dasharray: none; stroke-linecap: butt; stroke-dashoffset: 0; stroke-linejoin: miter; stroke-miterlimit: 4; fill: rgb(0,0,0); fill-rule: nonzero; opacity: 1;" vector-effect="non-scaling-stroke"  transform=" translate(-7.0769239263, -7.0769239263)" d="M 7.07693 0 C 10.98339 0 14.15386 3.17046 14.15386 7.07693 C 14.15386 10.98339 10.9834 14.15386 7.07693 14.15386 C 3.17047 14.15386 0 10.9834 0 7.07693 C 0 3.17047 3.17046 0 7.07693 0 z" stroke-linecap="round" />
</g>
		<g transform="matrix(0.9615386981 0 0 0.9615386981 9.9999993332 -28.3076920906)" id="EQlnYPIAVWi8J5sLF3qcV"  >
<path style="stroke: rgb(53,136,204); stroke-width: 0; stroke-dasharray: none; stroke-linecap: butt; stroke-dashoffset: 0; stroke-linejoin: miter; stroke-miterlimit: 4; fill: rgb(0,0,0); fill-rule: nonzero; opacity: 1;" vector-effect="non-scaling-stroke"  transform=" translate(0, 0)" d="M 0 -4 C 2.208 -4 4 -2.208 4 0 C 4 2.208 2.208 4 0 4 C -2.208 4 -4 2.208 -4 0 C -4 -2.208 -2.208 -4 0 -4 z" stroke-linecap="round" />
</g>
		<g transform="matrix(1 0 0 1 45.8461496822 -76.6153853798)" id="sxAuM7pKeIGGMDVQIH7wk"  >
<path style="stroke: rgb(5,180,191); stroke-width: 0; stroke-dasharray: none; stroke-linecap: butt; stroke-dashoffset: 0; stroke-linejoin: miter; stroke-miterlimit: 4; fill: rgb(0,0,0); fill-rule: nonzero; opacity: 1;" vector-effect="non-scaling-stroke"  transform=" translate(-4.6153867859, -4.6153867859)" d="M 4.61539 0 C 7.1630899999999995 0 9.23078 2.06769 9.23078 4.61539 C 9.23078 7.1630899999999995 7.1630899999999995 9.23078 4.61539 9.23078 C 2.06769 9.23078 0 7.1630899999999995 0 4.61539 C 0 2.06769 2.06769 0 4.61539 0 z" stroke-linecap="round" />
</g>
		<g transform="matrix(1 0 0 1 19.6923035283 -43.6923084567)" id="MDUHpzMRtByVc2_7AFzU4"  >
<path style="stroke: rgb(15,246,17); stroke-width: 0; stroke-dasharray: none; stroke-linecap: butt; stroke-dashoffset: 0; stroke-linejoin: miter; stroke-miterlimit: 4; fill: rgb(0,0,0); fill-rule: nonzero; opacity: 1;" vector-effect="non-scaling-stroke"  transform=" translate(-3.0769254363, -3.0769254363)" d="M 3.07693 0 C 4.77539 0 6.15386 1.37846 6.15386 3.07693 C 6.15386 4.77539 4.775399999999999 6.15386 3.07693 6.15386 C 1.3784699999999999 6.15386 0 4.775399999999999 0 3.07693 C 0 1.3784699999999999 1.37846 0 3.07693 0 z" stroke-linecap="round" />
</g>
		<g transform="matrix(1 0 0 1 -43.0769272409 -11.6923084567)" id="tMBR5D2bSp4WUooC_fJgm"  >
<path style="stroke: rgb(192,53,183); stroke-width: 0; stroke-dasharray: none; stroke-linecap: butt; stroke-dashoffset: 0; stroke-linejoin: miter; stroke-miterlimit: 4; fill: rgb(0,0,0); fill-rule: nonzero; opacity: 1;" vector-effect="non-scaling-stroke"  transform=" translate(-3.6923015104, -3.6923015104)" d="M 3.6923 0 C 5.730449999999999 0 7.3846 1.65415 7.3846 3.6923 C 7.3846 5.730449999999999 5.730449999999999 7.3846 3.6923 7.3846 C 1.65415 7.3846 0 5.730449999999999 0 3.6923 C 0 1.65415 1.65415 0 3.6923 0 z" stroke-linecap="round" />
</g>
		<g transform="matrix(0.1925010678 0 0 0.1925010678 -19.3076460785 81.769179181)" id="xTGpM8naEBgPb4jry2nCS"  >
<path style="stroke: rgb(129,157,224); stroke-width: 0; stroke-dasharray: none; stroke-linecap: butt; stroke-dashoffset: 0; stroke-linejoin: miter; stroke-miterlimit: 4; fill: rgb(0,0,0); fill-rule: nonzero; opacity: 1;" vector-effect="non-scaling-stroke"  transform=" translate(0, 0)" d="M 0 -30.76932 C 16.98467 -30.76932 30.76932 -16.984659999999998 30.76932 0 C 30.76932 16.98467 16.984659999999998 30.76932 0 30.76932 C -16.98467 30.76932 -30.76932 16.984659999999998 -30.76932 0 C -30.76932 -16.98467 -16.984659999999998 -30.76932 0 -30.76932 z" stroke-linecap="round" />
</g>
</g>
</g>
</svg>